<svg width="607" height="370" viewBox="0 0 607 370" fill="none" xmlns="http://www.w3.org/2000/svg">
<path d="M129.597 -246.136C-48.5103 -40.0894 -44.0618 253.435 177.033 338.918C401.749 425.801 1111.03 294.695 1367.7 110.353M129.597 -246.136C-48.5103 -40.0894 18.8787 220.177 239.974 305.66C464.69 392.543 1111.03 294.695 1367.7 110.353M129.597 -246.136C-48.5103 -40.0894 81.7778 177.451 302.873 262.934C527.589 349.817 1111.03 294.695 1367.7 110.353M129.597 -246.136C-48.5103 -40.0894 165.964 140.388 387.059 225.871C611.775 312.754 1111.03 294.695 1367.7 110.353M129.597 -246.136C-48.5103 -40.0894 243.731 98.2462 464.826 183.729C689.542 270.612 1111.03 294.695 1367.7 110.353" stroke="url(#paint0_linear_2070_2567)" stroke-width="5.96468"/>
<defs>
<linearGradient id="paint0_linear_2070_2567" x1="493.456" y1="326.028" x2="427.619" y2="-72.0215" gradientUnits="userSpaceOnUse">
<stop stop-color="#F5B899"/>
<stop offset="0.451923" stop-color="#F6D6BF"/>
<stop offset="0.89403" stop-color="#B17763"/>
</linearGradient>
</defs>
</svg>
